<svg xmlns="http://www.w3.org/2000/svg" xmlns:xlink="http://www.w3.org/1999/xlink" version="1.1" width="256" height="256" viewBox="0 0 256 256" xml:space="preserve">

<defs>
</defs>
<g style="stroke: none; stroke-width: 0; stroke-dasharray: none; stroke-linecap: butt; stroke-linejoin: miter; stroke-miterlimit: 10; fill: none; fill-rule: nonzero; opacity: 1;" transform="translate(1.4065934065934016 1.4065934065934016) scale(2.81 2.81)" >
	<path d="M 55.172 78.821 c -0.3 0.034 -0.702 0.046 -1.42 0.047 c -0.013 0 -0.026 0 -0.038 0 c -0.046 0 -0.08 0.001 -0.128 0.001 c -0.992 0 -1.971 -0.056 -2.936 -0.159 c -0.019 -0.002 -0.037 -0.005 -0.056 -0.007 c -0.485 -0.053 -0.966 -0.119 -1.443 -0.197 c -0.055 -0.009 -0.109 -0.02 -0.163 -0.029 c -0.439 -0.074 -0.875 -0.159 -1.307 -0.253 c -0.081 -0.018 -0.162 -0.038 -0.243 -0.056 c -0.401 -0.092 -0.798 -0.192 -1.192 -0.301 c -0.106 -0.029 -0.212 -0.06 -0.318 -0.09 c -0.361 -0.105 -0.718 -0.217 -1.073 -0.336 c -0.132 -0.044 -0.263 -0.088 -0.394 -0.134 c -0.32 -0.113 -0.637 -0.233 -0.951 -0.358 c -0.11 -0.043 -0.222 -0.08 -0.331 -0.124 l -8.48 4.637 c -0.642 0.351 -1.349 0.522 -2.053 0.523 c -1.017 0 -2.027 -0.358 -2.824 -1.053 c -1.349 -1.176 -1.828 -3.089 -1.192 -4.761 l 3.089 -8.125 c -2.817 -3.683 -4.626 -7.96 -5.318 -12.486 c -0.005 -0.035 -0.009 -0.07 -0.014 -0.105 c -0.059 -0.393 -0.109 -0.788 -0.151 -1.185 c -0.014 -0.129 -0.023 -0.26 -0.035 -0.39 c -0.028 -0.307 -0.053 -0.614 -0.07 -0.923 c -0.009 -0.163 -0.015 -0.326 -0.022 -0.489 c -0.011 -0.282 -0.019 -0.564 -0.021 -0.847 c -0.001 -0.087 -0.007 -0.172 -0.007 -0.259 c 0 -0.09 0.006 -0.179 0.007 -0.269 c 0.003 -0.277 0.01 -0.555 0.021 -0.833 c 0.007 -0.17 0.013 -0.339 0.023 -0.508 c 0.005 -0.096 0.007 -0.192 0.013 -0.289 c 0.014 -0.206 0.037 -0.41 0.056 -0.615 c 0.013 -0.137 0.023 -0.275 0.037 -0.412 c 0.037 -0.347 0.082 -0.691 0.132 -1.033 c 0.013 -0.093 0.024 -0.188 0.039 -0.281 c 0.062 -0.401 0.134 -0.799 0.214 -1.195 c 0.008 -0.038 0.013 -0.077 0.021 -0.115 c 0.09 -0.434 0.189 -0.865 0.299 -1.292 c 0.037 -0.144 0.081 -0.286 0.121 -0.429 c 0.072 -0.261 0.143 -0.523 0.222 -0.781 c 0.084 -0.275 0.178 -0.545 0.27 -0.817 c 0.04 -0.118 0.078 -0.237 0.12 -0.354 c 0.115 -0.321 0.238 -0.637 0.364 -0.953 c 0.024 -0.059 0.046 -0.118 0.07 -0.176 c 0.145 -0.355 0.298 -0.705 0.456 -1.052 c 0.004 -0.009 0.009 -0.019 0.013 -0.028 c 3.096 -6.746 8.839 -12.03 15.895 -14.516 c 0.294 -0.104 0.589 -0.207 0.888 -0.301 c 0.099 -0.031 0.199 -0.058 0.298 -0.088 c 0.326 -0.099 0.654 -0.194 0.985 -0.28 c 0.093 -0.024 0.187 -0.046 0.281 -0.069 c 0.338 -0.085 0.679 -0.164 1.022 -0.236 c 0.097 -0.02 0.195 -0.038 0.292 -0.058 c 0.337 -0.067 0.675 -0.128 1.016 -0.182 c 0.113 -0.018 0.226 -0.034 0.339 -0.051 c 0.32 -0.047 0.642 -0.088 0.966 -0.123 c 0.14 -0.015 0.28 -0.03 0.42 -0.043 c 0.124 -0.012 0.246 -0.028 0.37 -0.038 c 0.138 -0.011 0.275 -0.013 0.413 -0.022 c 0.257 -0.017 0.514 -0.031 0.772 -0.04 c 0.214 -0.008 0.428 -0.013 0.642 -0.016 c 0.137 -0.002 0.272 -0.01 0.41 -0.01 c 0.881 0 1.303 0.023 1.643 0.053 l 0.969 -21.281 H 15.329 v 84.881 h 40.868 l -0.968 -8.687 C 55.21 78.82 55.191 78.82 55.172 78.821 z" style="stroke: none; stroke-width: 1; stroke-dasharray: none; stroke-linecap: butt; stroke-linejoin: miter; stroke-miterlimit: 10; fill: rgb(40,136,168); fill-rule: nonzero; opacity: 1;" transform=" matrix(1 0 0 1 0 0) " stroke-linecap="round" />
	<rect x="26.53" y="2.62" rx="0" ry="0" width="17.71" height="4.45" style="stroke: none; stroke-width: 1; stroke-dasharray: none; stroke-linecap: butt; stroke-linejoin: miter; stroke-miterlimit: 10; fill: rgb(71,160,189); fill-rule: nonzero; opacity: 1;" transform=" matrix(1 0 0 1 0 0) "/>
	<path d="M 55.229 78.816 v 6.086 c 0 0.606 -0.493 1.098 -1.098 1.098 H 18.004 c -0.606 0 -1.098 -0.493 -1.098 -1.098 V 4.731 C 16.906 4.328 17.234 4 17.637 4 h 5.689 c 0.379 2.345 2.052 4.126 4.044 4.126 h 17.396 c 1.992 0 3.664 -1.781 4.044 -4.126 h 5.321 c 0.606 0 1.098 0.493 1.098 1.098 v 18.809 c 1.362 0.081 2.698 0.258 4 0.531 V 5.098 C 59.229 2.283 56.946 0 54.131 0 H 17.637 c -2.613 0 -4.731 2.118 -4.731 4.731 v 80.171 c 0 2.816 2.283 5.098 5.098 5.098 h 36.126 c 2.816 0 5.098 -2.283 5.098 -5.098 v -6.617 C 57.927 78.557 56.591 78.735 55.229 78.816 z M 41.948 4.25 c 0.414 0 0.75 0.336 0.75 0.75 c 0 0.414 -0.336 0.75 -0.75 0.75 c -0.414 0 -0.75 -0.336 -0.75 -0.75 C 41.198 4.586 41.534 4.25 41.948 4.25 z M 29.437 4.25 h 9.466 c 0.414 0 0.75 0.336 0.75 0.75 s -0.336 0.75 -0.75 0.75 h -9.466 c -0.414 0 -0.75 -0.336 -0.75 -0.75 S 29.023 4.25 29.437 4.25 z" style="stroke: none; stroke-width: 1; stroke-dasharray: none; stroke-linecap: butt; stroke-linejoin: miter; stroke-miterlimit: 10; fill: rgb(9,96,125); fill-rule: nonzero; opacity: 1;" transform=" matrix(1 0 0 1 0 0) " stroke-linecap="round" />
	<circle cx="53.59" cy="51.36" r="21" style="stroke: none; stroke-width: 1; stroke-dasharray: none; stroke-linecap: butt; stroke-linejoin: miter; stroke-miterlimit: 10; fill: rgb(222,254,242); fill-rule: nonzero; opacity: 1;" transform="  matrix(1 0 0 1 0 0) "/>
	<path d="M 51.665 27.93 c -11.492 0.913 -20.756 10.299 -21.532 21.802 c -0.439 6.5 1.769 12.48 5.65 16.977 c 0.305 0.354 0.402 0.84 0.235 1.277 l -3.652 9.607 c -0.096 0.253 0.174 0.488 0.412 0.359 l 9.669 -5.286 c 0.356 -0.194 0.779 -0.2 1.146 -0.027 c 3.443 1.621 7.34 2.437 11.453 2.187 C 66.646 74.12 76.142 64.79 77.024 53.201 C 78.123 38.742 66.133 26.781 51.665 27.93 z M 43.195 56.895 c -2.602 0.399 -4.811 -1.811 -4.412 -4.412 c 0.248 -1.621 1.574 -2.946 3.195 -3.194 c 2.602 -0.398 4.81 1.81 4.412 4.412 C 46.141 55.322 44.816 56.647 43.195 56.895 z M 54.195 56.895 c -2.602 0.399 -4.811 -1.811 -4.412 -4.412 c 0.248 -1.621 1.574 -2.946 3.195 -3.194 c 2.602 -0.398 4.81 1.81 4.412 4.412 C 57.141 55.322 55.816 56.647 54.195 56.895 z M 65.195 56.895 c -2.602 0.399 -4.811 -1.811 -4.412 -4.412 c 0.248 -1.621 1.574 -2.946 3.195 -3.194 c 2.602 -0.398 4.81 1.81 4.412 4.412 C 68.141 55.322 66.816 56.647 65.195 56.895 z" style="stroke: none; stroke-width: 1; stroke-dasharray: none; stroke-linecap: butt; stroke-linejoin: miter; stroke-miterlimit: 10; fill: rgb(0,176,102); fill-rule: nonzero; opacity: 1;" transform=" matrix(1 0 0 1 0 0) " stroke-linecap="round" />
</g>
</svg>